<svg width="28" height="29" viewBox="0 0 28 29" fill="none" xmlns="http://www.w3.org/2000/svg">
<g clip-path="url(#clip0_227_1730)">
<path d="M13.708 8.37508C12.4389 8.37508 11.1983 8.75141 10.1431 9.45648C9.08788 10.1616 8.26544 11.1637 7.77978 12.3362C7.29412 13.5087 7.16705 14.7989 7.41464 16.0436C7.66222 17.2883 8.27335 18.4316 9.17074 19.329C10.0681 20.2264 11.2115 20.8375 12.4562 21.0851C13.7009 21.3327 14.9911 21.2056 16.1636 20.72C17.3361 20.2343 18.3382 19.4119 19.0433 18.3567C19.7483 17.3014 20.1247 16.0608 20.1247 14.7917C20.1247 13.0899 19.4486 11.4578 18.2453 10.2545C17.0419 9.05112 15.4098 8.37508 13.708 8.37508ZM13.708 20.0417C12.6697 20.0417 11.6546 19.7338 10.7913 19.157C9.92791 18.5801 9.255 17.7601 8.85764 16.8008C8.46028 15.8415 8.35631 14.7859 8.55888 13.7675C8.76146 12.7491 9.26147 11.8137 9.9957 11.0794C10.7299 10.3452 11.6654 9.8452 12.6838 9.64262C13.7022 9.44005 14.7578 9.54402 15.7171 9.94138C16.6764 10.3387 17.4963 11.0116 18.0732 11.875C18.6501 12.7384 18.958 13.7534 18.958 14.7917C18.958 16.1841 18.4049 17.5195 17.4203 18.5041C16.4358 19.4886 15.1004 20.0417 13.708 20.0417ZM20.1247 0.791748H7.29134C5.28012 0.791748 3.35127 1.5907 1.92911 3.01285C0.506964 4.43501 -0.291992 6.36386 -0.291992 8.37508V21.2084C-0.291992 22.2043 -0.0958436 23.1904 0.285255 24.1104C0.666353 25.0305 1.22494 25.8665 1.92911 26.5706C3.35127 27.9928 5.28012 28.7917 7.29134 28.7917H20.1247C21.1205 28.7917 22.1066 28.5956 23.0267 28.2145C23.9467 27.8334 24.7827 27.2748 25.4869 26.5706C26.1911 25.8665 26.7497 25.0305 27.1308 24.1104C27.5119 23.1904 27.708 22.2043 27.708 21.2084V8.37508C27.708 7.37922 27.5119 6.39312 27.1308 5.47307C26.7497 4.55301 26.1911 3.71703 25.4869 3.01285C24.7827 2.30868 23.9467 1.75009 23.0267 1.36899C22.1066 0.987897 21.1205 0.791748 20.1247 0.791748ZM26.5413 21.2084C26.5413 22.9102 25.8653 24.5423 24.6619 25.7457C23.4586 26.949 21.8265 27.6251 20.1247 27.6251H7.29134C5.58954 27.6251 3.95743 26.949 2.75407 25.7457C1.55071 24.5423 0.874674 22.9102 0.874674 21.2084V8.37508C0.874674 6.67328 1.55071 5.04117 2.75407 3.83781C3.95743 2.63445 5.58954 1.95841 7.29134 1.95841H20.1247C21.8265 1.95841 23.4586 2.63445 24.6619 3.83781C25.8653 5.04117 26.5413 6.67328 26.5413 8.37508V21.2084ZM22.458 7.20841C22.458 7.43916 22.3896 7.66472 22.2614 7.85658C22.1332 8.04844 21.951 8.19797 21.7378 8.28627C21.5246 8.37458 21.29 8.39768 21.0637 8.35266C20.8374 8.30765 20.6295 8.19653 20.4664 8.03337C20.3032 7.87021 20.1921 7.66233 20.1471 7.43602C20.1021 7.20971 20.1252 6.97513 20.2135 6.76195C20.3018 6.54877 20.4513 6.36656 20.6432 6.23837C20.835 6.11017 21.0606 6.04175 21.2913 6.04175C21.6008 6.04175 21.8975 6.16466 22.1163 6.38346C22.3351 6.60225 22.458 6.899 22.458 7.20841Z" fill="#171A1C"/>
</g>
<defs>
<clipPath id="clip0_227_1730">
<rect width="28" height="28" fill="white" transform="translate(0 0.5)"/>
</clipPath>
</defs>
</svg>
