<svg width="885" height="186" viewBox="0 0 885 186" fill="none" xmlns="http://www.w3.org/2000/svg">
<g opacity="0.3">
<path d="M144.543 18.1639C144.543 28.2388 139.456 38.0716 129.281 47.6621C119.605 56.7683 107.086 64.1792 91.7237 69.8947C75.9626 75.8041 60.2514 78.7587 44.59 78.7587C39.1035 78.7587 33.8665 78.5166 28.8788 78.0322C23.5918 88.6884 20.25 98.0367 18.8535 106.077C18.7537 107.046 18.7039 108.015 18.7039 108.983C18.5044 109.468 17.856 109.807 16.7587 110.001C14.8633 110.291 13.8658 110.437 13.766 110.437C12.7685 110.437 12.2697 109.904 12.2697 108.838C12.2697 101.573 16.0105 91.0618 23.4921 77.3056C13.8159 75.8525 6.43413 73.6244 1.34668 70.6213C0.448893 70.3307 0 69.4104 0 67.8604C0.199508 66.8917 0.399016 66.4073 0.598524 66.4073C2.19459 67.7635 4.04003 68.9744 6.13487 70.0401C11.3221 72.6557 17.3572 74.5932 24.2402 75.8525C35.2131 55.9933 48.63 39.1856 64.4909 25.4295C83.9429 8.47649 103.395 0 122.847 0C137.311 0 144.543 6.05464 144.543 18.1639ZM138.109 19.0358C138.109 8.57337 131.326 3.34216 117.76 3.34216C100.602 3.34216 83.3444 11.3343 65.9872 27.3185C51.4231 40.784 39.2532 57.2042 29.4773 76.5791C32.5697 76.9666 36.3104 77.1603 40.6996 77.1603C58.5556 77.1603 75.2643 74.0603 90.826 67.8604C105.091 62.1448 116.612 54.6855 125.391 45.4824C133.87 36.57 138.109 27.7545 138.109 19.0358Z" fill="#B43737"/>
<path d="M110.499 94.3071C110.499 94.6945 110 95.2758 109.003 96.0508C104.613 99.6351 100.174 101.427 95.6854 101.427C92.8923 101.427 90.4982 100.701 88.5032 99.2477C83.9145 105.06 78.9268 107.966 73.5401 107.966C69.5499 107.966 67.5548 105.544 67.5548 100.701C67.5548 94.4039 70.747 88.0587 77.1312 81.665C82.5179 76.3369 86.4582 73.6728 88.9521 73.6728C90.5481 73.6728 91.3461 74.1572 91.3461 75.126C91.3461 75.4166 91.0469 75.8041 90.4484 76.2885C88.0543 76.7728 84.8123 79.2431 80.7224 83.6993C75.7347 89.1243 73.2408 94.3555 73.2408 99.393C73.2408 102.687 74.4379 104.334 76.832 104.334C80.3233 104.334 83.8646 102.348 87.4557 98.3758C85.5604 96.3414 84.6128 93.8227 84.6128 90.8196C84.6128 87.3321 85.5105 84.329 87.3061 81.8103C88.9022 79.679 90.598 78.6134 92.3936 78.6134C94.1891 78.6134 95.2365 79.8244 95.5358 82.2462C95.5358 86.5087 93.9896 91.1102 90.8973 96.0508C92.5931 97.8914 94.8874 98.8117 97.7803 98.8117C101.671 98.8117 105.461 97.2617 109.152 94.1617C109.451 93.8711 109.751 93.7258 110.05 93.7258C110.349 93.7258 110.499 93.9196 110.499 94.3071ZM94.0395 83.1181C94.0395 82.1493 93.6904 81.665 92.9921 81.665C92.0943 81.665 91.1466 82.44 90.1491 83.99C89.1516 85.5399 88.6528 87.5259 88.6528 89.9477C88.6528 91.9821 89.1017 93.6774 89.9995 95.0336C92.6928 90.9649 94.0395 86.9931 94.0395 83.1181Z" fill="#B43737"/>
<path d="M151.567 94.3071C151.567 94.7914 150.819 95.5664 149.322 96.632L128.673 111.454C128.474 118.913 124.883 128.843 117.9 141.243C111.416 152.868 103.984 163.136 95.6048 172.049C86.7267 181.445 79.7439 186.095 74.6565 185.999C72.9606 185.999 71.5142 185.417 70.3172 184.255C69.1201 183.092 68.5216 181.639 68.5216 179.895C68.5216 172.727 73.0105 163.282 81.9884 151.56C88.8714 142.841 97.4004 133.783 107.575 124.387C116.553 116.249 121.641 112.18 122.838 112.18C122.838 111.599 122.688 111.066 122.389 110.582C120.992 108.16 119.047 106.949 116.553 106.949C115.556 106.949 114.458 107.143 113.261 107.53C110.867 108.305 109.421 108.693 108.922 108.693C108.623 108.693 108.423 108.499 108.323 108.112C108.323 107.143 109.321 106.271 111.316 105.496C114.508 104.14 118.349 101.573 122.838 97.7945C128.125 93.2414 130.768 89.5602 130.768 86.7509C130.768 85.104 129.97 84.2806 128.374 84.2806C126.977 84.2806 123.935 85.8306 119.246 88.9305C115.556 91.5462 111.865 94.1618 108.174 96.7774C107.875 97.068 107.575 97.2133 107.276 97.2133C107.076 97.2133 106.977 96.6805 106.977 95.6149C107.276 95.4211 109.072 94.1133 112.363 91.6915C115.655 89.1727 118.997 86.6056 122.389 83.99C125.88 81.2775 129.022 79.9212 131.815 79.9212C135.407 79.9212 137.202 81.7618 137.202 85.4431C137.202 89.8993 131.317 95.857 119.546 103.316C118.847 103.994 118.498 104.479 118.498 104.769C118.498 105.157 118.847 105.351 119.546 105.351C123.935 105.351 126.828 106.61 128.224 109.129C130.519 107.869 134.16 105.302 139.147 101.427C143.736 97.9398 147.427 95.518 150.22 94.1617C150.519 93.8711 150.819 93.7258 151.118 93.7258C151.417 93.7258 151.567 93.9196 151.567 94.3071ZM123.586 115.232C123.586 114.844 123.536 114.651 123.436 114.651C121.242 114.651 116.004 118.719 107.725 126.857C98.9465 135.382 91.3652 144.149 84.981 153.158C77.2999 164.105 73.4594 172.63 73.4594 178.733C73.4594 180.961 74.2076 182.075 75.7039 182.075C78.6965 182.075 84.183 177.861 92.1633 169.433C100.144 161.102 107.126 152.093 113.112 142.405C120.094 131.168 123.586 122.11 123.586 115.232Z" fill="#B43737"/>
<path d="M217.623 8.13743C217.623 18.0186 212.835 29.5951 203.258 42.8668C195.976 53.0386 186.849 63.0167 175.876 72.801C166.399 81.229 160.663 85.4431 158.668 85.4431C153.98 94.8399 151.636 100.265 151.636 101.718C157.322 96.3898 163.058 91.0618 168.843 85.7337C180.215 75.9494 188.595 71.0572 193.981 71.0572C196.076 71.3479 197.123 72.2197 197.123 73.6728C197.123 77.8384 195.128 81.4228 191.138 84.4259C187.447 86.654 183.707 88.8337 179.916 90.9649C175.926 93.3868 173.931 95.9539 173.931 98.6664C173.931 102.929 175.676 105.06 179.168 105.06C183.258 105.06 190.49 101.863 200.864 95.4696C201.363 95.0821 202.061 94.6461 202.959 94.1617C203.258 93.8711 203.558 93.7258 203.857 93.7258C204.156 93.7258 204.306 93.9196 204.306 94.3071C204.306 94.4039 203.657 95.0821 202.361 96.3414C199.967 98.6664 195.827 101.282 189.941 104.188C184.056 106.998 179.667 108.402 176.774 108.402C171.387 108.402 168.694 105.884 168.694 100.846C168.694 96.9711 170.689 93.7258 174.679 91.1102C178.27 89.0759 181.961 86.9931 185.752 84.8618C189.642 82.6337 191.587 80.0181 191.587 77.015C191.587 75.6588 190.939 74.9807 189.642 74.9807C186.45 74.9807 178.719 80.5509 166.449 91.6915C154.279 102.735 147.745 108.257 146.848 108.257C145.65 108.16 145.052 107.627 145.052 106.659C145.052 105.98 145.351 105.157 145.95 104.188C150.738 94.6945 155.526 85.2009 160.314 75.7072C170.389 55.848 179.317 40.0575 187.098 28.3357C198.171 11.7702 206.75 3.48747 212.835 3.48747C216.027 3.48747 217.623 5.03746 217.623 8.13743ZM213.284 10.3171C213.284 8.08899 212.386 6.97494 210.59 6.97494C201.612 9.20305 184.804 34.4388 160.165 82.6822C162.858 81.8103 168.444 77.2088 176.923 68.8776C186.5 59.3839 194.53 49.8902 201.014 40.3965C209.194 28.3841 213.284 18.3577 213.284 10.3171Z" fill="#B43737"/>
<path d="M247.779 94.3071C247.779 95.6633 244.188 98.182 237.006 101.863C229.824 105.544 221.095 107.385 210.821 107.385C204.935 107.385 201.743 106.804 201.244 105.641C201.244 104.963 201.793 104.624 202.89 104.624C204.386 104.915 205.334 105.06 205.733 105.06C210.821 105.06 216.257 102.541 222.043 97.5039C227.529 92.7571 230.273 88.6884 230.273 85.2978C230.273 83.8446 229.325 83.1181 227.43 83.1181C218.053 83.1181 207.828 91.7399 196.755 108.983C195.857 110.34 190.421 120.608 180.445 139.79C170.37 159.067 165.034 169.385 164.435 170.741C163.737 172.388 162.839 173.211 161.742 173.211C161.343 173.211 161.043 173.163 160.844 173.066C160.245 172.872 159.946 172.291 159.946 171.322C159.946 167.835 182.391 127.147 227.28 49.2605C228.078 47.9043 228.826 47.2262 229.524 47.2262C229.624 47.2262 229.824 47.3231 230.123 47.5168C230.422 47.7106 230.572 48.098 230.572 48.6793C230.572 49.7449 230.273 50.5683 229.674 51.1496C229.574 51.4402 225.484 58.6089 217.404 72.6557C209.723 86.2181 205.883 93.4352 205.883 94.3071C205.883 94.4039 205.933 94.5008 206.032 94.5977C206.132 94.4039 206.481 94.0164 207.08 93.4352C209.474 90.6258 212.766 87.7681 216.955 84.8618C222.542 81.1806 227.43 79.34 231.619 79.34C234.712 79.34 236.258 80.5025 236.258 82.8275C236.258 89.8993 230.422 96.8258 218.751 103.607C227.629 103.607 236.856 100.459 246.433 94.1617C246.732 93.8711 247.031 93.7258 247.331 93.7258C247.63 93.7258 247.779 93.9196 247.779 94.3071Z" fill="#B43737"/>
<path d="M296.551 94.3071C296.551 94.8883 295.803 95.6633 294.306 96.632C282.037 104.673 273.757 108.693 269.468 108.693C266.675 108.693 265.278 107.143 265.278 104.043C265.278 102.299 265.627 100.555 266.325 98.8117C267.323 96.3899 267.822 95.1305 267.822 95.0336C267.822 94.6461 267.672 94.4524 267.373 94.4524C267.273 94.4524 267.024 94.5492 266.625 94.743C264.43 96.8742 261.238 99.4414 257.048 102.445C251.662 106.319 247.921 108.257 245.826 108.257C243.432 108.257 242.235 107.094 242.235 104.769C242.235 103.413 243.981 99.6836 247.472 93.5805C250.963 87.3805 252.709 83.7962 252.709 82.8275C252.709 81.7618 251.811 81.229 250.016 81.229C249.617 81.229 249.417 80.6478 249.417 79.4853C250.315 79.1947 251.263 79.0494 252.26 79.0494C255.752 79.0494 257.497 80.0181 257.497 81.9556C257.497 84.0868 255.951 87.6712 252.859 92.7086C249.766 97.7461 248.22 100.895 248.22 102.154C248.22 102.929 248.569 103.316 249.268 103.316C250.864 103.316 254.754 100.749 260.939 95.6149C267.223 90.4805 272.061 85.8306 275.453 81.665C276.949 80.2119 278.047 79.4853 278.745 79.4853C280.042 79.4853 280.69 80.115 280.69 81.3744C280.69 82.0525 280.341 82.9243 279.643 83.99C273.657 92.7086 270.665 98.3758 270.665 100.991C270.665 103.413 271.812 104.624 274.106 104.624C277.598 104.624 283.932 101.573 293.109 95.4696C293.608 95.0821 294.306 94.6461 295.204 94.1617C295.503 93.8711 295.803 93.7258 296.102 93.7258C296.401 93.7258 296.551 93.9196 296.551 94.3071Z" fill="#B43737"/>
<path d="M309.904 102.299C309.605 102.687 309.206 103.219 308.707 103.898C308.208 104.479 307.71 105.06 307.211 105.641C306.812 106.319 306.413 106.852 306.014 107.24C305.615 107.724 305.316 107.966 305.116 107.966C303.819 107.966 303.171 107.288 303.171 105.932C303.171 105.448 303.52 104.479 304.218 103.026C305.415 101.379 306.612 99.7804 307.809 98.2305C309.007 96.6805 310.154 95.0821 311.251 93.4352C314.742 88.5915 316.488 85.1525 316.488 83.1181C316.488 82.2462 316.189 81.8103 315.59 81.8103C315.191 81.8103 314.593 82.004 313.795 82.3915C311.201 84.2321 308.109 86.4603 304.518 89.0759C301.026 91.6915 296.886 94.6946 292.098 98.0852H291.051C290.353 98.0852 290.003 97.9883 290.003 97.7945C290.003 97.6008 290.552 97.1164 291.649 96.3414C295.141 93.6289 298.782 90.868 302.572 88.0587C306.463 85.1524 310.553 82.1493 314.842 79.0494C315.939 78.0806 317.486 77.5963 319.481 77.5963C321.476 77.5963 322.473 78.4681 322.473 80.2119C322.473 82.1493 321.027 85.2493 318.134 89.5118C317.635 90.1899 317.087 90.9649 316.488 91.8368C318.084 91.7399 320.329 91.643 323.221 91.5461C324.917 91.3524 326.414 91.304 327.71 91.4008H327.86C329.456 88.204 331.9 84.9587 335.192 81.665C340.579 76.3369 344.519 73.6728 347.013 73.6728C348.609 73.6728 349.407 74.1572 349.407 75.126C349.407 75.4166 349.108 75.8041 348.509 76.2885C346.115 76.7728 342.873 79.2431 338.783 83.6993C335.491 87.2837 333.247 90.8196 332.05 94.3071C332.05 94.5008 332 94.6461 331.9 94.743C331.501 96.293 331.301 97.843 331.301 99.393C331.301 102.687 332.499 104.334 334.893 104.334C338.384 104.334 341.925 102.348 345.516 98.3758C343.621 96.3414 342.673 93.8227 342.673 90.8196C342.673 87.3321 343.571 84.329 345.367 81.8103C346.963 79.679 348.659 78.6134 350.454 78.6134C352.25 78.6134 353.297 79.8244 353.596 82.2462C353.596 86.5087 352.05 91.1102 348.958 96.0508C350.654 97.8914 352.948 98.8117 355.841 98.8117C359.731 98.8117 363.522 97.2617 367.213 94.1617C367.512 93.8711 367.811 93.7258 368.111 93.7258C368.41 93.7258 368.56 93.9196 368.56 94.3071C368.56 94.6945 368.061 95.2758 367.063 96.0508C362.674 99.6351 358.235 101.427 353.746 101.427C350.953 101.427 348.559 100.701 346.564 99.2477C341.975 105.06 336.987 107.966 331.601 107.966C327.611 107.966 325.616 105.544 325.616 100.701C325.616 98.2789 326.064 95.857 326.962 93.4352C325.067 93.3383 322.324 93.4352 318.732 93.7258C317.436 93.8227 316.488 93.8711 315.889 93.8711H315.141C314.343 95.0336 313.595 96.1961 312.897 97.3586C312.099 98.618 311.401 99.732 310.802 100.701C310.204 101.669 309.904 102.202 309.904 102.299ZM352.1 83.1181C352.1 82.1493 351.751 81.665 351.053 81.665C350.155 81.665 349.207 82.44 348.21 83.99C347.212 85.5399 346.713 87.5259 346.713 89.9477C346.713 91.9821 347.162 93.6774 348.06 95.0336C350.753 90.9649 352.1 86.9931 352.1 83.1181Z" fill="#B43737"/>
<path d="M437.873 94.3071C437.474 95.5664 434.082 98.0367 427.698 101.718C420.316 105.98 414.48 109.468 410.191 112.18C396.724 138.433 388.345 154.175 385.053 159.407C375.676 174.906 367.795 182.656 361.411 182.656C358.419 182.656 356.922 180.767 356.922 176.989C356.922 155.871 373.182 134.365 405.702 112.471L414.979 93.5805C414.979 93.193 414.829 92.9993 414.53 92.9993C403.557 101.137 396.824 105.205 394.33 105.205C391.936 105.205 390.739 104.043 390.739 101.718C390.739 100.362 392.235 96.8742 395.228 91.2555C398.32 85.6368 399.866 82.3431 399.866 81.3744C399.866 80.3087 398.969 79.7759 397.173 79.7759C396.774 79.7759 396.574 79.1947 396.574 78.0322C397.472 77.7416 398.42 77.5963 399.417 77.5963C402.909 77.5963 404.654 78.565 404.654 80.5025C404.654 82.6337 403.308 86.1212 400.615 90.9649C397.921 95.8086 396.574 98.8601 396.574 100.12C396.574 100.895 396.924 101.282 397.622 101.282C400.016 101.282 403.856 99.2476 409.143 95.1789C415.129 90.529 419.618 85.5399 422.61 80.2119C424.106 78.7587 425.204 78.0322 425.902 78.0322C427.199 78.0322 427.847 78.6619 427.847 79.9212C427.847 80.5994 427.498 81.4712 426.8 82.5368C422.909 88.4462 418.021 97.068 412.136 108.402C417.423 105.205 422.311 102.444 426.8 100.12C431.788 97.3102 435.03 95.3242 436.526 94.1617C436.825 93.8711 437.124 93.7258 437.424 93.7258C437.723 93.7258 437.873 93.9196 437.873 94.3071ZM403.906 116.394C375.377 136.157 361.112 155.968 361.112 175.827C361.112 178.345 361.96 179.605 363.656 179.605C367.845 179.605 374.03 172.63 382.21 158.68C387.497 149.574 394.729 135.479 403.906 116.394Z" fill="#B43737"/>
<path d="M554.419 94.3071C554.419 94.8883 553.671 95.6633 552.174 96.632C545.092 101.282 541.151 103.849 540.353 104.334C535.864 106.949 532.124 108.257 529.131 108.257C527.435 108.257 525.989 107.676 524.792 106.513C523.694 105.351 523.146 103.946 523.146 102.299C523.146 97.4555 526.338 90.529 532.722 81.5197C533.221 80.8415 533.47 80.4056 533.47 80.2119C533.47 80.115 533.42 80.0665 533.321 80.0665C532.922 80.0665 532.223 80.4056 531.226 81.0837C525.64 85.1524 519.455 89.6571 512.672 94.5977C509.779 97.0195 505.539 100.41 499.953 104.769C499.155 105.351 498.058 105.884 496.661 106.368C495.963 106.368 495.614 105.884 495.614 104.915C495.614 102.977 497.26 99.8773 500.552 95.6149C503.943 91.2555 505.639 88.204 505.639 86.4602C505.639 84.8134 504.841 83.99 503.245 83.99C500.851 83.99 496.063 87.1384 488.88 93.4352C483.992 97.6977 479.703 101.815 476.012 105.787C474.616 107.24 473.518 107.966 472.72 107.966C471.423 107.966 470.775 107.288 470.775 105.932C470.775 105.544 471.124 104.576 471.822 103.026C474.216 99.8289 476.561 96.632 478.855 93.4352C482.346 88.5915 484.092 85.1525 484.092 83.1181C484.092 82.2462 483.793 81.8103 483.194 81.8103C482.895 81.8103 482.297 82.004 481.399 82.3915C476.311 86.0727 469.079 91.304 459.702 98.0852H458.655C457.957 98.0852 457.607 97.9883 457.607 97.7945C457.607 97.5039 458.156 97.0195 459.253 96.3414C466.236 91.0133 473.967 85.2493 482.446 79.0494C483.643 78.0806 485.189 77.5963 487.085 77.5963C489.08 77.5963 490.077 78.4681 490.077 80.2119C490.077 80.5993 489.978 81.1806 489.778 81.9556C487.783 85.3462 485.239 89.6571 482.147 94.8883C481.748 95.5664 481.548 96.0024 481.548 96.1961C481.548 96.293 481.648 96.3414 481.848 96.3414L482.297 96.1961C485.987 93.0961 489.678 89.9962 493.369 86.8962C499.055 82.2462 503.145 79.9212 505.639 79.9212C508.931 79.9212 510.577 80.9384 510.577 82.9728C510.577 84.7165 509.579 87.3806 507.584 90.9649C505.689 94.4524 504.741 96.3414 504.741 96.632C504.741 96.9227 504.841 97.068 505.04 97.068C505.439 97.068 506.138 96.7289 507.135 96.0508L538.258 73.2369C539.256 72.4619 540.303 72.0744 541.401 72.0744C542.099 72.0744 542.598 72.2197 542.897 72.5104C543.196 72.7041 543.346 73.0916 543.346 73.6728C543.346 74.351 543.146 74.9322 542.747 75.4166C539.954 79.2915 537.111 83.215 534.219 87.1868C530.827 92.2243 529.131 96.5836 529.131 100.265C529.131 102.59 530.428 103.704 533.021 103.607C536.114 103.51 539.605 102.299 543.496 99.9742C546.688 98.0367 549.88 96.0992 553.072 94.1617C553.371 93.8711 553.671 93.7258 553.97 93.7258C554.269 93.7258 554.419 93.9196 554.419 94.3071Z" fill="#B43737"/>
<path d="M595.046 94.3071C595.046 94.6945 594.547 95.2758 593.549 96.0508C589.16 99.6351 584.721 101.427 580.232 101.427C577.439 101.427 575.045 100.701 573.05 99.2477C568.461 105.06 563.474 107.966 558.087 107.966C554.097 107.966 552.102 105.544 552.102 100.701C552.102 94.4039 555.294 88.0587 561.678 81.665C567.065 76.3369 571.005 73.6728 573.499 73.6728C575.095 73.6728 575.893 74.1572 575.893 75.126C575.893 75.4166 575.594 75.8041 574.995 76.2885C572.601 76.7728 569.359 79.2431 565.269 83.6993C560.282 89.1243 557.788 94.3555 557.788 99.393C557.788 102.687 558.985 104.334 561.379 104.334C564.87 104.334 568.411 102.348 572.003 98.3758C570.107 96.3414 569.16 93.8227 569.16 90.8196C569.16 87.3321 570.057 84.329 571.853 81.8103C573.449 79.679 575.145 78.6134 576.94 78.6134C578.736 78.6134 579.783 79.8244 580.083 82.2462C580.083 86.5087 578.536 91.1102 575.444 96.0508C577.14 97.8914 579.434 98.8117 582.327 98.8117C586.218 98.8117 590.008 97.2617 593.699 94.1617C593.998 93.8711 594.298 93.7258 594.597 93.7258C594.896 93.7258 595.046 93.9196 595.046 94.3071ZM578.586 83.1181C578.586 82.1493 578.237 81.665 577.539 81.665C576.641 81.665 575.694 82.44 574.696 83.99C573.698 85.5399 573.2 87.5259 573.2 89.9477C573.2 91.9821 573.649 93.6774 574.546 95.0336C577.24 90.9649 578.586 86.9931 578.586 83.1181Z" fill="#B43737"/>
<path d="M653.022 35.456C651.825 35.5528 649.83 35.6013 647.037 35.6013C644.343 35.5044 641.201 35.5528 637.61 35.7466C634.119 35.8435 630.527 36.1341 626.836 36.6185C623.146 37.006 619.754 37.7325 616.662 38.7981C613.669 39.7669 611.225 41.0747 609.33 42.7215C607.534 44.2715 606.736 46.3543 606.936 48.9699C607.135 50.9074 608.083 53.1355 609.779 55.6542C611.474 58.0761 613.27 60.7886 615.165 63.7917C617.061 66.6979 618.657 69.7979 619.953 73.0916C621.25 76.2885 621.599 79.6306 621.001 83.1181C621.001 85.2493 620.552 87.7681 619.654 90.6743C618.756 93.4836 617.26 96.1477 615.165 98.6664C612.871 101.573 610.227 103.849 607.235 105.496C604.342 107.143 601.549 107.966 598.855 107.966C594.865 107.966 592.87 105.544 592.87 100.701C592.87 94.3071 596.062 87.9618 602.447 81.665C607.833 76.3369 611.774 73.6728 614.267 73.6728C615.864 73.6728 616.662 74.1572 616.662 75.126C616.662 75.5135 616.362 75.901 615.764 76.2885C613.27 76.7728 610.028 79.2431 606.038 83.6993C601.05 89.1243 598.556 94.3555 598.556 99.393C598.556 102.687 599.753 104.334 602.147 104.334C605.639 104.334 609.18 102.348 612.771 98.3758C613.669 97.2133 614.517 95.9539 615.315 94.5977C616.113 93.2414 616.811 91.8852 617.41 90.529C618.008 89.1727 618.457 87.8649 618.756 86.6056C619.155 85.2493 619.355 84.0868 619.355 83.1181C619.355 80.7931 619.205 78.8556 618.906 77.3056C618.607 75.7556 618.158 74.3994 617.559 73.2369C616.961 71.9775 616.213 70.7666 615.315 69.6041C614.417 68.4416 613.42 67.037 612.322 65.3901C611.125 63.6464 609.978 61.9511 608.881 60.3042C607.784 58.6573 606.836 57.0105 606.038 55.3636C605.24 53.7168 604.691 52.0699 604.392 50.423C604.192 48.7762 604.392 47.0809 604.99 45.3371C606.487 43.0122 608.781 40.9778 611.873 39.2341C614.966 37.4903 618.407 36.0857 622.198 35.02C626.088 33.8575 630.128 32.9857 634.318 32.4044C638.607 31.8232 642.697 31.4841 646.588 31.3873C650.478 31.2904 654.019 31.4357 657.212 31.8232C660.404 32.2107 662.848 32.7435 664.543 33.4216C665.94 34.0029 666.539 34.5357 666.339 35.02C666.239 35.4075 665.042 35.5528 662.748 35.456H653.022Z" fill="#B43737"/>
<path d="M649.143 60.3042C649.143 61.1761 648.595 62.0964 647.497 63.0651C646.5 63.937 645.602 64.3729 644.804 64.3729C643.208 64.3729 642.36 63.5011 642.26 61.7573C642.26 60.5948 642.809 59.6261 643.906 58.8511C644.704 58.173 645.552 57.8339 646.45 57.8339C648.245 57.8339 649.143 58.6573 649.143 60.3042ZM651.388 94.3071C651.388 94.8883 650.39 95.857 648.395 97.2133C640.614 102.638 634.479 105.351 629.99 105.351C625.501 105.351 623.257 103.51 623.257 99.8289C623.257 95.9539 624.953 91.4008 628.344 86.1696C630.539 82.779 632.684 80.0666 634.779 78.0322C635.477 77.1603 636.574 76.7244 638.07 76.7244C638.869 76.9181 639.268 77.1603 639.268 77.4509C639.268 77.5478 637.522 80.3572 634.03 85.879C630.539 91.4008 628.793 95.4696 628.793 98.0852C628.793 101.088 630.14 102.59 632.833 102.59C636.424 102.59 642.16 99.7804 650.041 94.1617C650.34 93.8711 650.639 93.7258 650.939 93.7258C651.238 93.7258 651.388 93.9196 651.388 94.3071Z" fill="#B43737"/>
<path d="M701.017 60.3042C701.017 61.1761 700.469 62.0964 699.371 63.0651C698.374 63.937 697.476 64.3729 696.678 64.3729C695.082 64.3729 694.234 63.5011 694.134 61.7573C694.134 60.5948 694.683 59.6261 695.78 58.8511C696.578 58.173 697.426 57.8339 698.324 57.8339C700.119 57.8339 701.017 58.6573 701.017 60.3042ZM703.262 94.3071C703.262 94.8883 702.264 95.857 700.269 97.2133C692.488 102.638 686.353 105.351 681.864 105.351C677.375 105.351 675.131 103.51 675.131 99.8289C675.131 95.9539 676.827 91.4008 680.218 86.1696C682.413 82.779 684.558 80.0666 686.653 78.0322C687.351 77.1603 688.448 76.7244 689.944 76.7244C690.742 76.9181 691.142 77.1603 691.142 77.4509C691.142 77.5478 689.396 80.3572 685.904 85.879C682.413 91.4008 680.667 95.4696 680.667 98.0852C680.667 101.088 682.014 102.59 684.707 102.59C688.299 102.59 694.034 99.7804 701.915 94.1617C702.214 93.8711 702.513 93.7258 702.813 93.7258C703.112 93.7258 703.262 93.9196 703.262 94.3071Z" fill="#B43737"/>
<path d="M748.132 94.3071C747.733 95.5664 744.292 98.0852 737.808 101.863C731.324 105.544 725.787 108.838 721.199 111.744C706.934 138.869 698.056 155.241 694.564 160.86C684.689 176.747 676.459 184.691 669.875 184.691C666.883 184.691 665.386 182.802 665.386 179.024C665.386 156.742 682.694 134.268 717.308 111.599C719.603 107.24 723.792 98.957 729.877 86.7509C729.877 86.654 729.777 86.6056 729.578 86.6056C729.378 86.6056 729.029 86.8477 728.531 87.3321C726.535 89.1727 723.892 91.5461 720.6 94.4524C713.518 100.846 707.732 104.043 703.243 104.043C701.148 104.043 700.101 102.832 700.101 100.41C700.101 96.0508 703.343 91.0133 709.827 85.2978C716.809 79.0978 723.643 75.9978 730.326 75.9978C732.221 75.9978 733.817 76.3853 735.114 77.1603L738.257 72.9463C738.955 72.0744 739.653 71.6385 740.351 71.6385C741.648 71.6385 742.297 72.3166 742.297 73.6728C742.297 74.351 742.047 75.0291 741.548 75.7072C736.86 82.4884 730.725 93.2414 723.144 107.966C728.231 104.866 732.87 102.251 737.06 100.12C742.047 97.3102 745.289 95.3242 746.786 94.1617C747.085 93.8711 747.384 93.7258 747.683 93.7258C747.983 93.7258 748.132 93.9196 748.132 94.3071ZM734.067 78.9041C734.067 78.5166 733.618 78.3228 732.72 78.3228C727.333 78.3228 721.448 80.8415 715.064 85.879C708.68 90.8196 705.487 95.2274 705.487 99.1023C705.487 100.265 706.036 100.846 707.133 100.846C711.223 100.846 719.952 93.9196 733.319 80.0665C733.818 79.3884 734.067 79.0009 734.067 78.9041ZM715.213 115.813C684.789 136.738 669.576 157.421 669.576 177.861C669.576 180.38 670.424 181.639 672.12 181.639C678.504 181.639 692.869 159.697 715.213 115.813Z" fill="#B43737"/>
<path d="M783.416 94.3071C783.416 94.9852 781.371 96.5836 777.281 99.1023C767.206 105.302 759.974 108.402 755.585 108.402C749.101 108.402 745.858 104.721 745.858 97.3586C745.858 91.9336 748.552 86.5087 753.939 81.0837C759.425 75.5619 764.612 72.801 769.5 72.801C770.997 72.801 771.745 73.4791 771.745 74.8353C771.745 78.1291 768.802 82.779 762.916 88.7852C758.228 93.5321 754.387 96.7773 751.395 98.5211C751.694 102.784 753.789 104.915 757.679 104.915C761.37 104.915 767.555 102.493 776.234 97.6492C776.932 97.2617 778.877 96.0992 782.069 94.1617C782.368 93.8711 782.668 93.7258 782.967 93.7258C783.266 93.7258 783.416 93.9196 783.416 94.3071ZM767.106 77.5963C767.106 76.4338 766.757 75.8525 766.059 75.8525C763.565 75.8525 760.522 78.2744 756.931 83.1181C753.34 87.9618 751.495 92.3211 751.395 96.1961C753.29 95.6149 756.283 93.0961 760.373 88.6399C764.862 83.7962 767.106 80.115 767.106 77.5963Z" fill="#B43737"/>
<path d="M830.007 94.3071C830.007 95.4695 826.915 97.6977 820.73 100.991C814.246 104.479 809.607 106.223 806.814 106.223C801.627 106.223 799.034 103.559 799.034 98.2305C799.034 96.7773 799.832 95.1305 801.428 93.2899C801.428 93.193 801.378 93.1446 801.278 93.1446C801.378 93.1446 798.684 95.1789 793.198 99.2477C787.711 103.219 783.771 105.205 781.377 105.205C779.083 105.205 777.936 104.285 777.936 102.445C777.936 97.9883 781.776 92.8055 789.457 86.8962C796.739 81.1806 802.425 78.3228 806.515 78.3228C807.114 78.4197 807.762 78.7587 808.46 79.34C809.258 79.8244 809.657 80.2119 809.657 80.5025C809.657 80.5994 809.608 80.6962 809.508 80.7931C803.922 80.7931 796.789 85.0071 788.11 93.4352C785.317 96.1477 783.921 98.4242 783.921 100.265C783.921 100.943 784.27 101.282 784.968 101.282C787.163 101.282 791.352 98.8117 797.537 93.8711C802.525 89.8024 806.066 86.5571 808.161 84.1353C809.159 82.9728 809.857 82.3915 810.256 82.3915C811.253 82.3915 811.752 83.0696 811.752 84.4259C811.752 84.9103 811.104 86.0243 809.807 87.768C805.518 93.4836 803.373 97.1164 803.373 98.6664C803.373 101.379 804.919 102.735 808.011 102.735C813.099 102.735 819.982 99.8773 828.661 94.1617C828.96 93.8711 829.259 93.7258 829.558 93.7258C829.858 93.7258 830.007 93.9196 830.007 94.3071Z" fill="#B43737"/>
<path d="M832.629 101.863C833.427 101.863 835.373 101.185 838.465 99.8289C843.951 97.3102 848.789 94.3071 852.979 90.8196C857.269 87.2352 860.91 83.554 863.902 79.7759C865.398 78.3228 866.496 77.5963 867.194 77.5963C868.491 77.5963 869.139 78.2259 869.139 79.4853C869.139 80.2603 868.79 81.1322 868.092 82.1009C862.107 90.8196 859.114 96.4867 859.114 99.1023C859.114 101.524 860.261 102.735 862.555 102.735C866.047 102.735 872.381 99.6836 881.559 93.5805C881.758 93.3867 882.207 93.0477 882.905 92.5633C883.703 92.0789 884.252 91.8368 884.551 91.8368C884.85 91.8368 885 92.0305 885 92.418C885 92.9993 884.252 93.7743 882.756 94.743C870.386 102.784 862.107 106.804 857.917 106.804C855.124 106.804 853.727 105.254 853.727 102.154C853.727 101.185 853.827 100.168 854.026 99.1023C854.326 97.9398 854.625 96.9227 854.924 96.0508C855.323 95.1789 855.622 94.4524 855.822 93.8711C856.121 93.2899 856.271 93.0477 856.271 93.1446C856.271 92.7571 856.121 92.5633 855.822 92.5633C855.323 92.5633 854.276 93.1446 852.68 94.3071C851.183 95.4695 848.69 97.0195 845.198 98.957C843.503 99.732 841.956 100.507 840.56 101.282C839.163 102.057 837.817 102.784 836.52 103.462C835.223 104.14 833.976 104.673 832.779 105.06C831.582 105.448 830.335 105.593 829.038 105.496C827.642 105.399 826.395 105.109 825.297 104.624C824.1 104.043 823.502 102.832 823.502 100.991C823.502 99.9258 823.801 99.0054 824.4 98.2305C824.898 97.4555 825.447 97.068 826.045 97.068C826.544 97.068 826.943 97.3102 827.243 97.7945C827.542 98.2789 827.891 98.8601 828.29 99.5383C828.689 100.119 829.138 100.652 829.637 101.137C830.135 101.621 830.834 101.863 831.732 101.863H832.629Z" fill="#B43737"/>
</g>
</svg>
