<svg width="515" height="203" viewBox="0 0 515 203" fill="none" xmlns="http://www.w3.org/2000/svg">
    <path d="M111.61 63.05c1.949 3.713 2.923 8.492 2.923 14.338 0 5.754-1.624 10.672-4.871 14.756-3.248 4.083-7.191 6.867-11.83 8.352-2.788.853-5.872 1.445-9.252 1.775a65.57 65.57 0 0 1-3.864.259 75.81 75.81 0 0 1-2.89.054c-11.413 0-21.156-2.83-29.228-8.492l.696-1.113c3.062 2.413 7.005 4.408 11.83 5.986a51.742 51.742 0 0 0 15.031 2.227c1.82 0 3.576-.101 5.265-.302a37.582 37.582 0 0 0 4.024-.699c3.655-.846 6.96-2.23 9.918-4.15 5.382-3.526 8.073-8.676 8.073-15.45 0-4.636-1.375-8.638-4.123-12.007l4.677-10.896c1.377 1.551 2.585 3.339 3.621 5.363zM123.241 35.914V34.8h2.923V20.88h9.743V34.8h21.294v1.114h-21.294v50.668c0 6.032.649 10.394 1.948 13.085 1.392 2.691 4.222 4.037 8.49 4.037 4.361 0 8.769-.882 13.222-2.645l.418 1.114c-4.639 1.763-9.975 2.645-16.006 2.645-5.938 0-10.392-1.207-13.361-3.62-2.969-2.505-4.454-7.424-4.454-14.755v-50.53h-2.923zM225.185 104.4c-6.31 0-10.625-1.206-12.944-3.619-2.134-2.042-3.201-3.805-3.201-5.29v-2.923c-4.547 8.259-11.831 12.389-21.852 12.389-11.691 0-18.325-5.29-19.903-15.869a20.353 20.353 0 0 1-.278-3.34c0-1.207.186-2.506.557-3.898.371-1.392 1.438-2.924 3.201-4.594 3.526-3.34 11.274-5.382 23.243-6.125 2.969-.278 5.706-.417 8.212-.417 2.505 0 4.778.092 6.82.278V47.885c-.186-.093-.186-.51 0-1.253.185-.835 0-1.856-.557-3.062a16.124 16.124 0 0 0-1.949-3.759c-.835-1.206-2.319-2.227-4.453-3.062-2.135-.928-4.918-1.392-8.351-1.392-3.433 0-7.47.65-12.109 1.949-4.547 1.206-7.887 2.412-10.021 3.619l-.557-.975c8.258-3.804 16.656-5.707 25.192-5.707 9.557 0 15.867 1.717 18.929 5.15 2.412 2.692 3.618 5.522 3.618 8.492v46.632c0 2.691.511 4.779 1.531 6.264 1.114 1.392 2.227 2.134 3.341 2.227l1.531.278h4.314v1.114h-4.314zm-35.77-.557c4.918 0 9.325-1.67 13.222-5.011 3.99-3.434 6.124-6.728 6.403-9.883V72.106a103.612 103.612 0 0 0-7.655-.279c-2.506 0-5.011.14-7.516.418-7.052.835-11.645 2.413-13.779 4.733-2.134 2.32-3.201 5.521-3.201 9.604 0 .743.046 1.578.139 2.506.835 9.837 4.964 14.755 12.387 14.755zM277.798 39.672c-1.485-1.206-3.897-2.227-7.237-3.062-3.248-.836-5.707-1.253-7.377-1.253h-2.923c-5.01.093-8.629 1.392-10.856 3.897-2.227 2.413-3.34 5.15-3.34 8.213 0 3.063.974 5.661 2.923 7.795 1.948 2.042 4.361 3.666 7.237 4.872a172.729 172.729 0 0 1 9.464 3.898c3.434 1.485 6.588 3.016 9.465 4.594 2.969 1.484 5.428 3.712 7.376 6.681 1.949 2.877 2.923 6.496 2.923 10.858 0 4.361-1.531 8.073-4.593 11.136-3.062 3.062-6.495 5.104-10.299 6.125-3.712 1.02-7.748 1.531-12.109 1.531-9.464 0-16.563-2.088-21.295-6.264l.835-.835c1.856 1.763 4.593 3.201 8.212 4.315 3.712 1.113 7.284 1.67 10.717 1.67 5.474 0 9.975-1.485 13.501-4.454 3.618-3.063 5.428-6.821 5.428-11.275 0-4.548-1.346-8.167-4.037-10.858-2.69-2.784-5.984-4.918-9.882-6.403a427.131 427.131 0 0 0-11.551-4.594c-3.898-1.577-7.192-3.712-9.882-6.403-2.691-2.784-4.037-5.986-4.037-9.605 0-3.619.836-6.542 2.506-8.77 1.67-2.32 3.897-3.943 6.68-4.871 4.733-1.578 9.465-2.367 14.197-2.367 7.979 0 14.196 1.485 18.65 4.455l-.696.974zM304.29 0v69.322L334.91 34.8h1.392l-22.687 25.613 29.924 43.987h-9.742l-25.749-37.862-3.758 4.315V104.4h-9.742V0h9.742zM384.179 104.957c-9.743 0-17.676-2.784-23.8-8.352-6.124-5.568-9.186-14.152-9.186-25.752s3.155-20.602 9.464-27.005c6.403-6.403 14.475-9.605 24.218-9.605 9.835 0 17.815 2.784 23.939 8.352C414.938 48.163 418 56.747 418 68.347s-3.201 20.602-9.604 27.005c-6.309 6.403-14.382 9.605-24.217 9.605zm.974-69.6c-7.052 0-12.897 3.155-17.537 9.465-4.639 6.218-6.959 14.941-6.959 26.17 0 11.136 2.134 19.395 6.403 24.778 4.268 5.382 9.928 8.073 16.98 8.073s12.897-3.109 17.536-9.326c4.64-6.31 6.959-15.034 6.959-26.17 0-11.229-2.134-19.534-6.402-24.917-4.268-5.382-9.928-8.073-16.98-8.073z" fill="#171A1C"/>
    <path d="M87.151 7.934c7.516 0 12.387.417 20.831 3.665l1.45-1.45c-7.249-2.9-16.91-4.35-26.097-4.35-9.093 0-15.576 3.016-20.123 7.285-4.547 4.176-6.82 9.651-6.82 16.426 0 8.537 3.526 15.126 10.578 19.766 3.155 2.134 6.634 4.083 10.438 5.846 3.805 1.67 7.563 3.295 11.274 4.873 3.804 1.577 7.284 3.294 10.439 5.15a27.162 27.162 0 0 1 3.721 2.627l4.651-10.742a21.467 21.467 0 0 0-1.274-.933c-3.155-2.135-6.634-4.037-10.439-5.707a144.724 144.724 0 0 0-11.413-4.455c-3.711-1.392-7.144-2.877-10.299-4.454-7.052-3.712-10.578-8.955-10.578-15.73 0-5.568 2.088-9.93 6.263-13.085 4.176-3.155 9.975-4.732 17.398-4.732z" fill="#171A1C"/>
    <path d="M115.177 13.28c3.59 2.4 6.606 5 6.606 9.607 0 3.84-.842 7.756-2.527 11.749L60.432 172.848 57.904 174 0 11.6h19.531l48.024 136.37 48.943-113.334c1.685-3.84 2.528-7.833 2.528-11.979 0-4.146-5.046-8.177-5.046-8.177l1.197-1.2z" fill="#171A1C"/>
    <path d="M217.898 119.008c0 4.441-2.003 8.776-6.008 13.004-3.809 4.015-8.737 7.282-14.784 9.802-6.204 2.605-12.389 3.908-18.554 3.908-2.159 0-4.221-.107-6.184-.321-2.081 4.698-3.397 8.819-3.947 12.364-.039.427-.058.854-.058 1.281-.079.214-.334.364-.766.449-.746.128-1.139.192-1.178.192-.393 0-.589-.235-.589-.705 0-3.203 1.472-7.836 4.417-13.901-3.809-.641-6.714-1.623-8.717-2.947-.353-.128-.53-.534-.53-1.217.079-.427.157-.641.236-.641a11.127 11.127 0 0 0 2.179 1.602c2.042 1.153 4.417 2.007 7.127 2.562 4.319-8.755 9.601-16.165 15.844-22.229C194.043 114.737 201.7 111 209.357 111c5.694 0 8.541 2.669 8.541 8.008zm-2.533.384c0-4.612-2.67-6.919-8.01-6.919-6.754 0-13.547 3.524-20.38 10.571-5.733 5.936-10.523 13.175-14.372 21.717 1.218.17 2.69.256 4.418.256 7.029 0 13.606-1.367 19.732-4.1 5.615-2.52 10.15-5.808 13.606-9.866 3.337-3.929 5.006-7.815 5.006-11.659z" fill="#B43737"/>
    <path d="M204.497 152.576c0 .171-.197.427-.589.769-1.728 1.58-3.475 2.37-5.242 2.37-1.1 0-2.042-.32-2.828-.961-1.806 2.563-3.769 3.844-5.89 3.844-1.57 0-2.356-1.068-2.356-3.203 0-2.776 1.257-5.573 3.77-8.392 2.12-2.349 3.671-3.524 4.653-3.524.628 0 .942.214.942.641 0 .128-.117.299-.353.513-.942.213-2.219 1.302-3.829 3.267-1.963 2.391-2.945 4.698-2.945 6.918 0 1.452.472 2.179 1.414 2.179 1.374 0 2.768-.876 4.182-2.627-.746-.897-1.119-2.007-1.119-3.331 0-1.538.353-2.862 1.06-3.972.628-.94 1.296-1.409 2.003-1.409.707 0 1.119.533 1.237 1.601 0 1.879-.609 3.908-1.826 6.086.667.811 1.57 1.217 2.709 1.217 1.532 0 3.024-.683 4.477-2.05.117-.128.235-.192.353-.192s.177.085.177.256zm-6.479-4.933c0-.427-.138-.64-.413-.64-.353 0-.726.342-1.119 1.025-.392.683-.589 1.559-.589 2.626 0 .897.177 1.645.53 2.243 1.061-1.794 1.591-3.545 1.591-5.254z" fill="#B43737"/>
    <path d="M220.663 152.576c0 .214-.295.555-.884 1.025l-8.128 6.535c-.079 3.288-1.492 7.666-4.241 13.132-2.552 5.125-5.478 9.652-8.776 13.581-3.495 4.143-6.244 6.193-8.246 6.15-.668 0-1.237-.256-1.708-.768-.472-.513-.707-1.154-.707-1.922 0-3.161 1.767-7.325 5.301-12.492 2.709-3.844 6.067-7.837 10.072-11.98 3.534-3.587 5.536-5.381 6.008-5.381 0-.256-.059-.491-.177-.705-.55-1.068-1.315-1.601-2.297-1.601-.393 0-.825.085-1.296.256-.942.342-1.512.512-1.708.512-.118 0-.196-.085-.236-.256 0-.427.393-.811 1.178-1.153 1.257-.598 2.769-1.73 4.536-3.395 2.081-2.008 3.121-3.63 3.121-4.869 0-.726-.314-1.089-.942-1.089-.55 0-1.747.683-3.593 2.05l-4.359 3.459c-.117.128-.235.192-.353.192-.078 0-.118-.234-.118-.704.118-.086.825-.662 2.121-1.73a1387.75 1387.75 0 0 0 3.946-3.395c1.374-1.196 2.611-1.794 3.711-1.794 1.413 0 2.12.812 2.12 2.434 0 1.965-2.317 4.592-6.95 7.88-.275.299-.412.513-.412.641 0 .171.137.256.412.256 1.728 0 2.866.555 3.416 1.666.903-.556 2.337-1.687 4.3-3.396 1.806-1.537 3.259-2.605 4.359-3.203.117-.128.235-.192.353-.192s.177.085.177.256zm-11.015 9.225c0-.171-.019-.256-.059-.256-.864 0-2.925 1.794-6.184 5.381-3.456 3.758-6.44 7.623-8.953 11.595-3.024 4.826-4.535 8.585-4.535 11.275 0 .983.294 1.474.883 1.474 1.178 0 3.338-1.858 6.479-5.574a71.18 71.18 0 0 0 8.246-11.915c2.749-4.954 4.123-8.948 4.123-11.98z" fill="#B43737"/>
    <path d="M246.665 114.587c0 4.357-1.885 9.46-5.655 15.311-2.866 4.485-6.459 8.884-10.778 13.197-3.731 3.716-5.989 5.573-6.774 5.573-1.845 4.143-2.768 6.535-2.768 7.175 2.238-2.349 4.496-4.697 6.773-7.046 4.477-4.314 7.775-6.471 9.896-6.471.824.128 1.237.513 1.237 1.153 0 1.837-.786 3.417-2.356 4.741a164.24 164.24 0 0 1-4.418 2.883c-1.571 1.068-2.356 2.199-2.356 3.395 0 1.879.687 2.819 2.061 2.819 1.61 0 4.457-1.41 8.541-4.228.196-.171.471-.363.825-.577.117-.128.235-.192.353-.192s.177.085.177.256c0 .043-.255.342-.766.897-.942 1.025-2.572 2.178-4.889 3.459-2.316 1.239-4.044 1.858-5.183 1.858-2.12 0-3.181-1.11-3.181-3.331 0-1.708.786-3.139 2.356-4.292 1.414-.897 2.867-1.815 4.359-2.755 1.532-.982 2.297-2.135 2.297-3.459 0-.598-.255-.897-.765-.897-1.257 0-4.3 2.456-9.13 7.367-4.791 4.869-7.363 7.303-7.716 7.303-.471-.043-.707-.277-.707-.704 0-.299.118-.662.354-1.09l5.654-12.556c3.966-8.755 7.48-15.716 10.543-20.884 4.359-7.303 7.736-10.955 10.131-10.955 1.257 0 1.885.684 1.885 2.05zm-1.708.961c0-.982-.354-1.473-1.06-1.473-3.534.982-10.151 12.108-19.85 33.376 1.06-.384 3.259-2.413 6.597-6.086 3.77-4.185 6.931-8.37 9.483-12.556 3.22-5.296 4.83-9.716 4.83-13.261z" fill="#B43737"/>
    <path d="M258.536 152.576c0 .598-1.414 1.709-4.241 3.331-2.827 1.623-6.263 2.435-10.308 2.435-2.317 0-3.573-.256-3.769-.769 0-.299.216-.448.648-.448.589.128.962.192 1.119.192 2.002 0 4.142-1.111 6.42-3.331 2.159-2.093 3.239-3.887 3.239-5.382 0-.64-.373-.961-1.119-.961-3.691 0-7.716 3.801-12.074 11.403-.354.598-2.494 5.125-6.421 13.582-3.966 8.499-6.066 13.047-6.302 13.645-.275.726-.628 1.089-1.06 1.089a.763.763 0 0 1-.354-.064c-.235-.086-.353-.342-.353-.769 0-1.537 8.835-19.475 26.505-53.812.314-.598.609-.897.884-.897.039 0 .118.043.235.128.118.086.177.257.177.513 0 .47-.118.833-.353 1.089-.04.128-1.649 3.288-4.83 9.481-3.024 5.979-4.535 9.161-4.535 9.545 0 .043.019.086.058.128.04-.085.177-.256.413-.512.942-1.239 2.238-2.499 3.887-3.78 2.199-1.623 4.123-2.434 5.772-2.434 1.218 0 1.826.512 1.826 1.537 0 3.118-2.297 6.172-6.891 9.161 3.495 0 7.127-1.388 10.897-4.164.117-.128.235-.192.353-.192s.177.085.177.256z" fill="#B43737"/>
    <path d="M277.734 152.576c0 .256-.294.598-.883 1.025-4.83 3.545-8.089 5.317-9.778 5.317-1.099 0-1.649-.683-1.649-2.05 0-.768.137-1.537.412-2.306.393-1.068.589-1.623.589-1.665 0-.171-.059-.257-.177-.257-.039 0-.137.043-.294.128-.864.94-2.12 2.072-3.77 3.396-2.12 1.708-3.593 2.562-4.417 2.562-.943 0-1.414-.512-1.414-1.537 0-.598.687-2.242 2.062-4.933 1.374-2.733 2.061-4.314 2.061-4.741 0-.469-.353-.704-1.06-.704-.157 0-.236-.257-.236-.769a3.265 3.265 0 0 1 1.119-.192c1.375 0 2.062.427 2.062 1.281 0 .94-.609 2.52-1.826 4.741-1.217 2.22-1.826 3.608-1.826 4.164 0 .341.138.512.412.512.629 0 2.16-1.132 4.595-3.395 2.474-2.264 4.378-4.314 5.713-6.15.589-.641 1.021-.961 1.296-.961.51 0 .766.278.766.833 0 .299-.138.683-.413 1.153-2.356 3.844-3.534 6.342-3.534 7.495 0 1.068.452 1.602 1.355 1.602 1.374 0 3.868-1.346 7.48-4.036.197-.171.472-.363.825-.577.118-.128.236-.192.353-.192.118 0 .177.085.177.256z" fill="#B43737"/>
    <path d="M282.99 156.1c-.117.17-.274.405-.471.704l-.589.769a3.354 3.354 0 0 1-.471.705c-.157.213-.275.32-.353.32-.511 0-.766-.299-.766-.897 0-.213.137-.64.412-1.281.471-.726.943-1.431 1.414-2.114.471-.683.923-1.388 1.355-2.114 1.374-2.136 2.061-3.652 2.061-4.549 0-.384-.118-.576-.353-.576-.157 0-.393.085-.707.256a392.494 392.494 0 0 0-3.652 2.947 231.72 231.72 0 0 1-4.889 3.972h-.412c-.275 0-.412-.043-.412-.128 0-.086.216-.299.648-.641a238.928 238.928 0 0 1 4.299-3.651 380.91 380.91 0 0 1 4.83-3.972c.432-.427 1.041-.641 1.826-.641.785 0 1.178.384 1.178 1.153 0 .854-.569 2.221-1.708 4.1-.196.299-.412.641-.648 1.025a93.301 93.301 0 0 1 2.651-.128c.667-.085 1.256-.107 1.767-.064h.059c.628-1.409 1.59-2.84 2.886-4.292 2.12-2.349 3.671-3.524 4.653-3.524.628 0 .942.214.942.641 0 .128-.118.299-.353.513-.943.213-2.219 1.302-3.829 3.267-1.296 1.58-2.179 3.139-2.65 4.676 0 .086-.02.15-.059.192a9.136 9.136 0 0 0-.236 2.05c0 1.452.471 2.179 1.414 2.179 1.374 0 2.768-.876 4.182-2.627-.746-.897-1.119-2.007-1.119-3.331 0-1.538.353-2.862 1.06-3.972.628-.94 1.296-1.409 2.003-1.409.706 0 1.119.533 1.236 1.601 0 1.879-.608 3.908-1.825 6.086.667.811 1.57 1.217 2.709 1.217 1.531 0 3.024-.683 4.476-2.05.118-.128.236-.192.354-.192s.176.085.176.256c0 .171-.196.427-.589.769-1.727 1.58-3.475 2.37-5.242 2.37-1.099 0-2.042-.32-2.827-.961-1.806 2.563-3.77 3.844-5.89 3.844-1.571 0-2.356-1.068-2.356-3.203 0-1.068.177-2.135.53-3.203-.746-.043-1.826 0-3.239.128-.511.043-.884.064-1.12.064h-.294a31.027 31.027 0 0 0-.884 1.538c-.314.555-.589 1.046-.824 1.473-.236.427-.354.662-.354.705zm16.61-8.457c0-.427-.137-.64-.412-.64-.353 0-.726.342-1.119 1.025-.393.683-.589 1.559-.589 2.626 0 .897.177 1.645.53 2.243 1.06-1.794 1.59-3.545 1.59-5.254zM333.364 152.576c-.157.555-1.492 1.644-4.005 3.267-2.906 1.88-5.203 3.417-6.892 4.613-5.301 11.574-8.599 18.514-9.895 20.82-3.691 6.833-6.793 10.25-9.306 10.25-1.178 0-1.767-.833-1.767-2.498 0-9.311 6.4-18.792 19.201-28.444l3.652-8.328c0-.171-.059-.256-.177-.256-4.319 3.587-6.97 5.381-7.951 5.381-.943 0-1.414-.513-1.414-1.538 0-.598.589-2.135 1.767-4.612 1.217-2.477 1.826-3.929 1.826-4.356 0-.47-.353-.705-1.06-.705-.157 0-.236-.256-.236-.769a3.265 3.265 0 0 1 1.119-.192c1.375 0 2.062.427 2.062 1.281 0 .94-.53 2.477-1.59 4.613-1.061 2.135-1.591 3.481-1.591 4.036 0 .341.138.512.413.512.942 0 2.454-.897 4.535-2.69 2.356-2.05 4.123-4.25 5.301-6.599.589-.64 1.021-.961 1.296-.961.51 0 .765.278.765.833 0 .299-.137.683-.412 1.153-1.531 2.605-3.455 6.406-5.772 11.403a99.007 99.007 0 0 1 5.772-3.651c1.964-1.239 3.24-2.114 3.829-2.627.118-.128.235-.192.353-.192s.177.085.177.256zm-13.371 9.738c-11.23 8.712-16.845 17.446-16.845 26.201 0 1.11.334 1.666 1.001 1.666 1.649 0 4.084-3.075 7.304-9.225 2.081-4.015 4.928-10.229 8.54-18.642zM379.241 152.576c0 .256-.295.598-.884 1.025-2.788 2.05-4.339 3.182-4.653 3.396-1.767 1.153-3.239 1.729-4.417 1.729-.668 0-1.237-.256-1.708-.769-.432-.512-.648-1.131-.648-1.857 0-2.136 1.256-5.189 3.769-9.161.197-.299.295-.491.295-.577 0-.042-.02-.064-.059-.064-.157 0-.432.15-.825.449l-7.303 5.957c-1.139 1.068-2.808 2.563-5.007 4.485-.314.256-.746.491-1.296.704-.275 0-.412-.213-.412-.64 0-.854.648-2.221 1.944-4.1 1.335-1.922 2.002-3.267 2.002-4.036 0-.726-.314-1.089-.942-1.089-.942 0-2.827 1.388-5.655 4.164-1.924 1.879-3.612 3.694-5.065 5.445-.55.641-.982.961-1.296.961-.51 0-.766-.299-.766-.897 0-.171.138-.598.413-1.281a260.892 260.892 0 0 0 2.768-4.228c1.374-2.136 2.062-3.652 2.062-4.549 0-.384-.118-.576-.354-.576-.118 0-.353.085-.707.256l-8.54 6.919h-.412c-.275 0-.413-.043-.413-.128 0-.128.216-.342.648-.641a568.884 568.884 0 0 1 9.13-7.623c.471-.427 1.08-.641 1.826-.641.785 0 1.178.384 1.178 1.153 0 .171-.04.427-.118.769-.785 1.495-1.787 3.395-3.004 5.701-.157.299-.236.492-.236.577 0 .043.04.064.118.064l.177-.064 4.358-4.1c2.239-2.05 3.849-3.075 4.83-3.075 1.296 0 1.944.449 1.944 1.345 0 .769-.393 1.944-1.178 3.524-.746 1.537-1.119 2.37-1.119 2.498 0 .128.039.192.118.192.157 0 .432-.149.824-.448l12.252-10.058c.392-.341.805-.512 1.237-.512.274 0 .471.064.589.192.117.085.176.256.176.512 0 .299-.078.556-.235.769-1.1 1.708-2.219 3.438-3.358 5.189-1.335 2.221-2.002 4.143-2.002 5.766 0 1.025.51 1.516 1.531 1.473 1.217-.043 2.592-.576 4.123-1.601l3.77-2.563c.118-.128.235-.192.353-.192s.177.085.177.256z" fill="#B43737"/>
    <path d="M395.233 152.576c0 .171-.196.427-.589.769-1.727 1.58-3.475 2.37-5.242 2.37-1.099 0-2.042-.32-2.827-.961-1.806 2.563-3.77 3.844-5.89 3.844-1.571 0-2.356-1.068-2.356-3.203 0-2.776 1.256-5.573 3.77-8.392 2.12-2.349 3.671-3.524 4.653-3.524.628 0 .942.214.942.641 0 .128-.118.299-.353.513-.943.213-2.219 1.302-3.829 3.267-1.963 2.391-2.945 4.698-2.945 6.918 0 1.452.471 2.179 1.414 2.179 1.374 0 2.768-.876 4.182-2.627-.746-.897-1.119-2.007-1.119-3.331 0-1.538.353-2.862 1.06-3.972.628-.94 1.296-1.409 2.002-1.409.707 0 1.119.533 1.237 1.601 0 1.879-.608 3.908-1.826 6.086.668.811 1.571 1.217 2.71 1.217 1.531 0 3.023-.683 4.476-2.05.118-.128.236-.192.354-.192.117 0 .176.085.176.256zm-6.479-4.933c0-.427-.137-.64-.412-.64-.353 0-.726.342-1.119 1.025-.393.683-.589 1.559-.589 2.626 0 .897.177 1.645.53 2.243 1.06-1.794 1.59-3.545 1.59-5.254z" fill="#B43737"/>
    <path d="M418.055 126.631c-.471.043-1.257.064-2.356.064-1.06-.043-2.297-.021-3.711.064a37.07 37.07 0 0 0-4.241.385c-1.452.17-2.788.491-4.005.961-1.178.427-2.14 1.003-2.886 1.729-.707.684-1.021 1.602-.942 2.755.078.854.451 1.836 1.119 2.947a92.027 92.027 0 0 1 2.12 3.587 23.797 23.797 0 0 1 1.885 4.1c.51 1.41.648 2.883.412 4.42 0 .94-.176 2.05-.53 3.332-.353 1.238-.942 2.413-1.767 3.523-.903 1.281-1.944 2.285-3.122 3.011-1.138.726-2.238 1.089-3.298 1.089-1.571 0-2.356-1.068-2.356-3.203 0-2.819 1.257-5.616 3.77-8.392 2.12-2.349 3.671-3.524 4.653-3.524.628 0 .942.214.942.641 0 .171-.118.342-.353.513-.982.213-2.258 1.302-3.829 3.267-1.963 2.391-2.945 4.698-2.945 6.918 0 1.452.471 2.179 1.414 2.179 1.374 0 2.768-.876 4.182-2.627.353-.513.687-1.068 1.001-1.666.314-.598.589-1.195.825-1.793a11 11 0 0 0 .53-1.73c.157-.598.235-1.11.235-1.538 0-1.025-.059-1.879-.176-2.562a7.284 7.284 0 0 0-.53-1.794 9.071 9.071 0 0 0-.884-1.601 33.897 33.897 0 0 1-1.178-1.858c-.471-.769-.923-1.516-1.355-2.242a19.057 19.057 0 0 1-1.119-2.178 9.194 9.194 0 0 1-.648-2.178c-.078-.727 0-1.474.236-2.243.589-1.025 1.492-1.922 2.709-2.69a17.304 17.304 0 0 1 4.065-1.858 28.975 28.975 0 0 1 4.77-1.153 39.73 39.73 0 0 1 4.83-.449c1.532-.042 2.926.022 4.182.193 1.257.17 2.219.405 2.886.704.55.257.786.491.707.705-.039.171-.51.235-1.413.192h-3.829z" fill="#B43737"/>
    <path d="M416.528 137.586c0 .384-.216.79-.648 1.217-.392.384-.746.576-1.06.576-.628 0-.962-.384-1.001-1.153 0-.512.216-.939.648-1.281.314-.299.648-.448 1.001-.448.707 0 1.06.363 1.06 1.089zm.884 14.99c0 .256-.393.684-1.178 1.281-3.063 2.392-5.478 3.588-7.245 3.588-1.767 0-2.651-.812-2.651-2.434 0-1.709.668-3.716 2.003-6.022.864-1.495 1.708-2.691 2.533-3.588.275-.384.707-.576 1.296-.576.314.085.471.192.471.32 0 .043-.687 1.281-2.062 3.716-1.374 2.434-2.061 4.228-2.061 5.381 0 1.324.53 1.986 1.59 1.986 1.414 0 3.672-1.239 6.774-3.716.117-.128.235-.192.353-.192s.177.085.177.256zM436.948 137.586c0 .384-.216.79-.648 1.217-.393.384-.746.576-1.06.576-.629 0-.962-.384-1.002-1.153 0-.512.216-.939.648-1.281.314-.299.648-.448 1.002-.448.706 0 1.06.363 1.06 1.089zm.883 14.99c0 .256-.392.684-1.178 1.281-3.062 2.392-5.477 3.588-7.244 3.588-1.767 0-2.651-.812-2.651-2.434 0-1.709.668-3.716 2.003-6.022.864-1.495 1.708-2.691 2.532-3.588.275-.384.707-.576 1.296-.576.314.085.471.192.471.32 0 .043-.687 1.281-2.061 3.716-1.374 2.434-2.062 4.228-2.062 5.381 0 1.324.53 1.986 1.591 1.986 1.413 0 3.671-1.239 6.773-3.716.118-.128.236-.192.354-.192.117 0 .176.085.176.256z" fill="#B43737"/>
    <path d="M455.494 152.576c-.157.555-1.512 1.666-4.064 3.331-2.552 1.623-4.732 3.075-6.538 4.357-5.615 11.958-9.11 19.176-10.484 21.653-3.888 7.004-7.127 10.506-9.719 10.506-1.178 0-1.767-.833-1.767-2.499 0-9.822 6.813-19.731 20.439-29.724.903-1.922 2.552-5.574 4.947-10.955 0-.043-.039-.064-.118-.064-.078 0-.215.107-.412.32a204.04 204.04 0 0 1-3.122 3.139c-2.788 2.819-5.065 4.228-6.832 4.228-.825 0-1.237-.533-1.237-1.601 0-1.922 1.276-4.143 3.829-6.663 2.748-2.733 5.438-4.1 8.069-4.1.746 0 1.374.171 1.885.513l1.237-1.858c.275-.384.549-.576.824-.576.511 0 .766.299.766.896 0 .299-.098.598-.294.897-1.846 2.99-4.261 7.73-7.245 14.222 2.002-1.367 3.828-2.52 5.478-3.459 1.963-1.239 3.239-2.114 3.828-2.627.118-.128.236-.192.353-.192.118 0 .177.085.177.256zm-5.536-6.79c0-.171-.177-.257-.531-.257-2.12 0-4.437 1.111-6.95 3.332-2.513 2.178-3.77 4.121-3.77 5.829 0 .513.216.769.648.769 1.61 0 5.046-3.054 10.308-9.161.196-.299.295-.47.295-.512zm-7.422 16.271c-11.976 9.225-17.965 18.343-17.965 27.355 0 1.11.334 1.665 1.002 1.665 2.513 0 8.167-9.673 16.963-29.02z" fill="#B43737"/>
    <path d="M469.383 152.576c0 .299-.805 1.004-2.415 2.114-3.966 2.734-6.813 4.1-8.54 4.1-2.553 0-3.829-1.623-3.829-4.868 0-2.392 1.06-4.784 3.181-7.175 2.159-2.435 4.201-3.652 6.125-3.652.589 0 .884.299.884.897 0 1.452-1.158 3.502-3.475 6.15-1.846 2.093-3.358 3.523-4.536 4.292.118 1.879.943 2.819 2.474 2.819 1.453 0 3.888-1.068 7.304-3.203.275-.171 1.041-.684 2.297-1.538.118-.128.236-.192.354-.192.117 0 .176.085.176.256zm-6.42-7.367c0-.512-.137-.769-.412-.769-.982 0-2.18 1.068-3.593 3.203-1.414 2.136-2.14 4.058-2.18 5.766.747-.256 1.925-1.367 3.534-3.331 1.768-2.136 2.651-3.758 2.651-4.869z" fill="#B43737"/>
    <path d="M487.723 152.576c0 .513-1.217 1.495-3.651 2.947-2.553 1.538-4.379 2.306-5.478 2.306-2.042 0-3.063-1.174-3.063-3.523 0-.641.314-1.367.942-2.178 0-.043-.019-.064-.059-.064.04 0-1.02.897-3.18 2.69-2.16 1.751-3.711 2.627-4.653 2.627-.903 0-1.355-.406-1.355-1.217 0-1.965 1.512-4.25 4.535-6.855 2.867-2.52 5.105-3.78 6.715-3.78.236.043.491.193.766.449.314.213.471.384.471.512a.19.19 0 0 1-.059.128c-2.199 0-5.007 1.858-8.423 5.574-1.099 1.196-1.649 2.199-1.649 3.011 0 .299.137.448.412.448.864 0 2.513-1.089 4.948-3.267 1.963-1.794 3.357-3.224 4.182-4.292.393-.513.667-.769.825-.769.392 0 .589.299.589.897 0 .214-.256.705-.766 1.473-1.689 2.52-2.533 4.122-2.533 4.805 0 1.196.609 1.794 1.826 1.794 2.003 0 4.712-1.26 8.128-3.78.118-.128.236-.192.354-.192s.176.085.176.256z" fill="#B43737"/>
    <path d="M488.756 155.907c.314 0 1.079-.299 2.297-.896 2.159-1.111 4.064-2.435 5.713-3.972 1.688-1.58 3.122-3.203 4.3-4.869.589-.641 1.021-.961 1.296-.961.51 0 .765.278.765.833 0 .342-.137.726-.412 1.153-2.356 3.844-3.534 6.342-3.534 7.495 0 1.068.452 1.602 1.355 1.602 1.374 0 3.867-1.345 7.48-4.036.079-.085.255-.235.53-.449.314-.213.53-.32.648-.32s.177.086.177.256c0 .257-.295.598-.884 1.025-4.869 3.545-8.128 5.318-9.777 5.318-1.1 0-1.649-.684-1.649-2.05 0-.427.039-.876.117-1.346.118-.512.236-.961.354-1.345.157-.384.275-.705.353-.961.118-.256.177-.363.177-.32 0-.171-.059-.257-.177-.257-.196 0-.609.257-1.237.769-.589.513-1.57 1.196-2.945 2.05-.667.342-1.276.684-1.826 1.025-.549.342-1.08.662-1.59.961a9.017 9.017 0 0 1-1.473.705 3.422 3.422 0 0 1-1.472.192 4.008 4.008 0 0 1-1.473-.384c-.471-.257-.706-.79-.706-1.602 0-.47.117-.875.353-1.217.196-.342.412-.513.648-.513.196 0 .353.107.471.321.118.213.255.47.412.768.157.257.334.492.531.705.196.214.471.32.824.32h.354z" fill="#B43737"/>
</svg>
